<svg xmlns="http://www.w3.org/2000/svg" width="1286" height="1286" viewBox="0 0 1286 1286"><path fill="#60CFA5" fill-rule="evenodd" d="M460.273 197.368c-.295.477-2.483.601-4.861.275-2.618-.359-4.585-.173-4.983.472-.385.623-2.03.807-3.966.444-2.024-.38-3.578-.182-4.006.511-.403.651-1.904.891-3.54.563-1.561-.312-3.12-.114-3.462.44-.343.555-1.448.747-2.455.427s-2.097-.152-2.421.372c-.324.525-2.5 1.27-4.834 1.656-6.376 1.055-26.842 7.132-35.027 10.401-22.714 9.072-43.082 21.403-61.966 37.516-7.191 6.135-27.977 28.86-31.636 34.585-.889 1.391-3.761 5.509-6.384 9.151-17.092 23.741-32.509 68.075-34.537 99.319-2.225 34.273 2.149 63.132 14.474 95.5 3.416 8.974 12.646 26.195 18.205 33.97 2.544 3.559 5.365 7.609 6.267 9 3.144 4.846 16.42 18.789 25.359 26.632 4.95 4.344 9.15 8.235 9.333 8.648.184.413.971.75 1.75.75.78 0 1.417.438 1.417.974s1.307 1.651 2.905 2.477 3.542 2.139 4.32 2.916c3.216 3.217 17.101 11.372 29.275 17.194 24.577 11.753 43.728 17.413 74.869 22.128 9.98 1.511 28.661 1.745 180.631 2.264l169.5.579 11 2.309c39.275 8.245 76.494 29.238 104.5 58.942 11.78 12.494 16.344 18.564 26.104 34.717 12.141 20.093 23.702 51.172 24.923 67 .411 5.323.064 43.372-.419 46-.303 1.65-.747 4.575-.985 6.5-.71 5.72-4.502 19.62-7.735 28.348-1.66 4.484-3.191 8.952-3.401 9.93-.909 4.221-15.989 30.02-22.317 38.179-6.222 8.021-22.101 23.92-30.17 30.208-7.782 6.065-18.858 13.22-26.173 16.91-2.93 1.478-5.552 2.966-5.827 3.306-.275.341-1.175.765-2 .944s-1.65.741-1.833 1.25-1.17.925-2.191.925c-1.022 0-2.141.457-2.486 1.016s-1.047.758-1.559.441c-.512-.316-.931-.072-.931.543s-.45.84-1 .5-1-.206-1 .297c0 1.395-24.152 8.894-36 11.178-18.396 3.546-28.238 3.99-88.906 4.008l-59.405.017-3.095 2.368c-4.687 3.586-40.54 34.556-55.721 48.132-20.221 18.083-26.775 23.76-30.493 26.41-1.859 1.325-3.38 2.995-3.38 3.712 0 1.061 21.382 1.312 115.816 1.358 63.698.03 116.139-.269 116.536-.665.396-.396 4.53-.8 9.187-.898 4.865-.102 9.083-.689 9.916-1.38.797-.661 2.333-.922 3.413-.579s2.276.119 2.657-.498 1.742-.859 3.023-.537 2.631.096 3-.5c.369-.597 1.746-.815 3.061-.485 1.47.369 2.391.163 2.391-.536 0-.643.867-.909 1.999-.613 1.099.288 2.27.085 2.601-.451s1.217-.738 1.969-.45c.752.289 1.64.082 1.974-.458.334-.541 1.136-.9 1.782-.799.646.102 1.85-.075 2.675-.391.825-.317 6.898-2.236 13.495-4.264 26.336-8.099 52.404-21.143 75.505-37.784 16.343-11.772 25.663-20.334 41.606-38.22 11.083-12.433 13.394-15.183 13.394-15.936 0-.385 1.56-2.604 3.468-4.931 11.375-13.883 32.453-56.967 35.033-71.61.287-1.631 1.609-6.46 2.938-10.73 12.085-38.851 12.629-89.049 1.422-131.265-1.679-6.325-3.262-12.611-3.516-13.969-.255-1.358-.942-3.045-1.527-3.75-.584-.705-.788-1.281-.451-1.281 2.017 0-12.708-34.017-19.838-45.831-2.766-4.582-5.86-9.757-6.875-11.5-1.016-1.743-3.716-5.585-6-8.538-2.285-2.952-4.69-6.304-5.345-7.449-1.866-3.258-17.992-21.397-26.388-29.682-10.218-10.082-21.138-19.873-28.421-25.481-3.3-2.541-6.115-4.942-6.256-5.336-.14-.394 3.01-2.721 7-5.172 6.815-4.185 13.675-8.996 18.256-12.804 1.1-.914 3.819-3.061 6.042-4.769 14.222-10.932 34.338-33.892 41.999-47.938 1.499-2.75 3.078-5.45 3.507-6 1.572-2.016 9.758-19.104 10.779-22.5.579-1.925 2.236-6.646 3.684-10.492 3.209-8.525 7.243-24.223 7.968-31.008.294-2.75.863-7.925 1.265-11.5 1.269-11.293.624-58.5-.8-58.5-.104 0-.299-2.051-.434-4.557-.324-6.02-5.825-27.844-9.07-35.985-1.415-3.552-2.734-7.2-2.93-8.107s-1.936-4.957-3.867-9c-14.397-30.142-37.684-58.318-63.404-76.716-19.671-14.071-35.115-22.337-54.739-29.297-6.05-2.145-11.675-4.183-12.5-4.527s-2.062-.536-2.75-.425c-.687.111-1.25-.316-1.25-.949s-.661-.897-1.468-.588-1.708.176-2.001-.299c-.293-.474-1.433-.627-2.532-.339-1.132.296-1.999.03-1.999-.613 0-.712-.933-.902-2.5-.509-1.508.379-2.5.2-2.5-.449 0-.593-.681-.816-1.513-.497-.832.32-2.162.042-2.956-.617s-1.933-.896-2.531-.526-1.737.133-2.531-.526-2.181-.915-3.083-.569-2.252.121-3-.499c-.752-.624-2.505-.842-3.919-.487-1.407.353-3.101.291-3.763-.138-.662-.43-3.004-.887-5.204-1.017-12.282-.724-384.778-.624-385.227.104m5.227 86.693c-10.27.922-20.836 2.749-24.5 4.236-1.375.558-2.95 1.101-3.5 1.207-.55.105-1.337.316-1.75.469s-1.087.349-1.5.437-1.762.723-3 1.411c-1.238.687-2.25.953-2.25.592 0-.362-.675-.098-1.5.587s-1.507.852-1.515.372c-.009-.479-.346-.422-.75.128s-4.104 2.575-8.221 4.5c-16.382 7.659-34.963 22.25-45.846 36-7.723 9.757-15.192 23.878-19.57 37-4.275 12.811-4.556 14.603-5.27 33.692-1.113 29.768 4.646 48.88 22.091 73.308 6.758 9.463 9.12 11.947 19.203 20.193 16.89 13.813 40.996 23.659 65.511 26.758 4.272.539 86.36 1.001 195.367 1.098 203.963.182 194.909.399 215.144-5.152 27.637-7.582 50.799-22.347 65.724-41.897 6.161-8.071 16.258-26.235 17.163-30.877.174-.893.384-1.623.467-1.623s.322-.901.532-2.002 1.307-5.826 2.438-10.5c4.071-16.821 3.684-38.475-1.006-56.417-1.019-3.894-2.114-8.577-2.434-10.406-.891-5.081-9.096-20.728-15.62-29.785-3.213-4.46-9.723-11.784-14.467-16.274-8.329-7.884-28.339-22.116-31.095-22.116-.74 0-1.346-.45-1.346-1s-.337-.892-.75-.759c-.413.132-3.225-.856-6.25-2.195s-5.837-2.348-6.25-2.241-.75-.303-.75-.912-.675-.848-1.5-.531-1.5.199-1.5-.262c0-.922-9.219-3.622-15.5-4.539-2.2-.321-6.025-1.112-8.5-1.756-5.319-1.386-362.512-2.089-377.5-.744m233.751 414.484c-13.938 3.753-14.807 4.514-71.324 62.455-6.17 6.325-21.165 21.648-33.322 34.05-12.158 12.403-36.505 37.348-54.105 55.435C482.251 910.343 448.602 944 447.006 944c-.867 0-11.748-10.237-24.182-22.75a219543 219543 0 0 1-49.089-49.424c-23.266-23.434-27.332-27.102-33.482-30.198-16.078-8.097-33.908-6.903-47.446 3.176-7.273 5.414-8.958 7.496-13.343 16.476-6.342 12.992-5.944 25.842 1.246 40.132 1.991 3.957 16.7 19.169 66.175 68.436 34.988 34.841 66.315 65.723 69.615 68.625 14.135 12.434 31.592 16.164 49.5 10.577 11.897-3.711 14.74-6.4 110-104.055 21.175-21.707 41.425-42.419 45-46.026 6.207-6.262 27.039-27.516 77.5-79.069 46.196-47.197 47.841-48.993 51.65-56.418 7.388-14.4 7.822-27.908 1.324-41.235-4.11-8.428-11.657-16.486-18.767-20.036-10.046-5.018-23.117-6.45-33.456-3.666"/></svg>