<svg xmlns="http://www.w3.org/2000/svg" viewBox="0 0 24 24" width="24" height="24" fill="#FF4500">
  <path d="M24 11.5c0-1.65-1.35-3-3-3-.96 0-1.86.48-2.42 1.24-1.64-1-3.85-1.64-6.23-1.72l1.3-4.14 4.2.93c.02.77.65 1.39 1.43 1.39 1.2 0 2.18-.98 2.18-2.18 0-1.2-.98-2.18-2.18-2.18-.8 0-1.5.43-1.88 1.09L12.5.95c-.17-.05-.35.03-.41.2l-1.53 4.88C8.18 6.1 5.97 6.74 4.33 7.74c-.56-.76-1.46-1.24-2.42-1.24-1.65 0-3 1.35-3 3 0 1.12.62 2.1 1.56 2.62-.05.29-.08.59-.08.88 0 3.71 4.54 6.72 10.12 6.72s10.12-3.01 10.12-6.72c0-.29-.03-.59-.08-.88.94-.52 1.56-1.5 1.56-2.62zM7.22 11.66c.66 0 1.2.54 1.2 1.2s-.54 1.2-1.2 1.2-1.2-.54-1.2-1.2.54-1.2 1.2-1.2zm7.4 4.34c-1.12 1.12-3.28 1.12-4.4 0-.12-.12-.12-.31 0-.43s.31-.12.43 0c.88.88 2.66.88 3.54 0 .12-.12.31-.12.43 0s.12.31 0 .43zm-1.02-1.94c-.66 0-1.2-.54-1.2-1.2s.54-1.2 1.2-1.2 1.2.54 1.2 1.2-.54 1.2-1.2 1.2z"/>
</svg>
